<?xml version="1.0" encoding="utf-8"?>
<!-- Generator: Adobe Illustrator 21.0.0, SVG Export Plug-In . SVG Version: 6.00 Build 0)  -->
<svg version="1.1" id="Layer_1" xmlns="http://www.w3.org/2000/svg" xmlns:xlink="http://www.w3.org/1999/xlink" x="0px" y="0px"
	 viewBox="0 0 281 46" style="enable-background:new 0 0 281 46;" xml:space="preserve">
<style type="text/css">
	.st0{fill:#6AA643;}
	.st1{fill:#D03E44;}
	.st2{fill:#1D6EB2;}
	.st3{fill:#075595;}
	.st4{fill:#F1A428;}
	.st5{fill:#DD2228;}
	.st6{fill:#EE9C28;}
	.st7{fill:#F06323;}
</style>
<path class="st0" d="M252.6,6.6h-8.4c-2.9,0-5.3,2.4-5.3,5.3v27.7h8.4c2.9,0,5.3-2.4,5.3-5.3V6.6z"/>
<path class="st1" d="M237.1,6.6h-8.4c-2.9,0-5.3,2.4-5.3,5.3v27.7h8.4c2.9,0,5.3-2.4,5.3-5.3V6.6z"/>
<path class="st2" d="M221.8,6.6h-8.4c-2.9,0-5.3,2.4-5.3,5.3v27.7h8.4c2.9,0,5.3-2.4,5.3-5.3V6.6z"/>
<g>
	<path class="st3" d="M48.7,35.6h-6.5l4-25.1h6.5L48.7,35.6z M72.2,11.1c-1.3-0.5-3.3-1.1-5.8-1.1c-6.4,0-10.9,3.4-10.9,8.3
		c-0.1,3.6,3.2,5.6,5.7,6.8c2.5,1.2,3.4,2,3.4,3.1c0,1.7-2,2.5-3.9,2.5c-2.6,0-4-0.4-6.1-1.3l-1-0.4l-0.9,5.6
		c1.5,0.7,4.3,1.3,7.2,1.3c6.8,0,11.2-3.4,11.3-8.6c0-2.9-1.7-5-5.4-6.8c-2.3-1.1-3.7-1.9-3.7-3.1c0-1.1,1.2-2.2,3.7-2.2
		c2.1-0.1,3.7,0.5,4.8,1l0.6,0.3C71.2,16.5,72.2,11.1,72.2,11.1z M80.8,26.7c0.5-1.4,2.6-7,2.6-7c0,0.1,0.5-1.5,0.9-2.4l0.5,2.2
		c0,0,1.2,6,1.5,7.3C85.1,26.7,82.1,26.7,80.8,26.7z M88.8,10.5h-5c-1.5,0-2.7,0.5-3.4,2.1l-9.6,23h6.8c0,0,1.1-3.1,1.4-3.8h8.3
		c0.2,0.9,0.8,3.8,0.8,3.8h6C94.1,35.6,88.8,10.5,88.8,10.5z M36.8,10.5l-6.3,17.1l-0.7-3.5c-1.2-4-4.9-8.3-9-10.5l5.8,21.9h6.9
		l10.2-25H36.8z"/>
	<path class="st4" d="M24.5,10.5H14.1L14,11c8.1,2.1,13.5,7.1,15.7,13.1l-2.3-11.5C27.1,11,25.9,10.6,24.5,10.5z"/>
</g>
<g>
	<path class="st5" d="M139.2,23c0-5.5,2.5-10.4,6.3-13.6c-3.1-2.7-7.2-4.3-11.6-4.3c-9.9,0-17.9,8-17.9,17.9s8,17.9,17.9,17.9
		c4.4,0,8.5-1.6,11.6-4.3C141.6,33.4,139.2,28.5,139.2,23z"/>
	<path class="st6" d="M157.1,5.1c-4.4,0-8.5,1.6-11.6,4.3c3.9,3.3,6.3,8.2,6.3,13.6s-2.5,10.4-6.3,13.6c3.1,2.7,7.2,4.3,11.6,4.3
		c9.9,0,17.9-8,17.9-17.9S167,5.1,157.1,5.1z"/>
	<path class="st7" d="M151.8,23c0-5.5-2.5-10.4-6.3-13.6c-3.9,3.3-6.3,8.2-6.3,13.6s2.5,10.4,6.3,13.6
		C149.4,33.4,151.8,28.5,151.8,23z"/>
</g>
</svg>
