<?xml version="1.0" encoding="utf-8"?>
<!-- Generator: Adobe Illustrator 21.0.0, SVG Export Plug-In . SVG Version: 6.00 Build 0)  -->
<svg version="1.1" id="Layer_1" xmlns="http://www.w3.org/2000/svg" xmlns:xlink="http://www.w3.org/1999/xlink" x="0px" y="0px"
	 viewBox="0 0 115 26" enable-background="new 0 0 115 26" xml:space="preserve">
<path fill="#222222" d="M5.852,5.543c1.04,0,1.942,0.122,2.707,0.365c0.764,0.243,1.394,0.583,1.891,1.024
	c0.5,0.438,0.87,0.967,1.113,1.583c0.243,0.616,0.365,1.294,0.365,2.039c0,0.762-0.13,1.456-0.386,2.085
	c-0.259,0.632-0.643,1.175-1.151,1.626c-0.511,0.454-1.143,0.808-1.899,1.064c-0.756,0.254-1.634,0.381-2.639,0.381H3.486v5.764
	h-2.59V5.543H5.852z M5.852,13.663c0.575,0,1.083-0.073,1.523-0.221c0.438-0.146,0.802-0.354,1.094-0.624
	c0.292-0.27,0.511-0.597,0.659-0.981c0.146-0.384,0.221-0.81,0.221-1.283c0-0.465-0.073-0.881-0.216-1.251
	c-0.143-0.367-0.359-0.681-0.648-0.94C8.199,8.106,7.835,7.909,7.397,7.771c-0.44-0.135-0.954-0.205-1.545-0.205H3.486v6.097H5.852z
	"/>
<path fill="#222222" d="M23.609,19.305v2.169h-9.206V5.543h2.59v13.762H23.609z"/>
<path fill="#222222" d="M40.162,13.509c0,1.18-0.192,2.269-0.575,3.263c-0.384,0.997-0.924,1.853-1.621,2.574
	c-0.697,0.719-1.534,1.28-2.512,1.686c-0.975,0.405-2.061,0.608-3.258,0.608c-1.186,0-2.269-0.203-3.247-0.608
	s-1.815-0.967-2.517-1.686c-0.7-0.721-1.243-1.577-1.626-2.574c-0.384-0.994-0.575-2.083-0.575-3.263s0.192-2.269,0.575-3.263
	c0.384-0.997,0.927-1.856,1.626-2.58c0.702-0.721,1.54-1.286,2.517-1.691c0.978-0.408,2.061-0.61,3.247-0.61
	c1.197,0,2.282,0.203,3.258,0.61c0.978,0.405,1.815,0.97,2.512,1.691c0.697,0.724,1.237,1.583,1.621,2.58
	C39.97,11.24,40.162,12.328,40.162,13.509z M37.518,13.509c0-0.916-0.122-1.737-0.37-2.469c-0.246-0.729-0.6-1.348-1.062-1.858
	c-0.462-0.508-1.021-0.899-1.677-1.172c-0.656-0.273-1.394-0.408-2.212-0.408c-0.81,0-1.545,0.135-2.201,0.408
	c-0.656,0.273-1.216,0.664-1.683,1.172c-0.465,0.511-0.821,1.129-1.072,1.858c-0.251,0.732-0.375,1.553-0.375,2.469
	c0,0.921,0.124,1.748,0.375,2.477c0.251,0.732,0.608,1.348,1.072,1.853c0.467,0.508,1.026,0.894,1.683,1.164
	c0.656,0.267,1.391,0.402,2.201,0.402c0.818,0,1.556-0.135,2.212-0.402c0.656-0.27,1.216-0.656,1.677-1.164
	c0.462-0.505,0.816-1.121,1.062-1.853C37.396,15.256,37.518,14.43,37.518,13.509z"/>
<path fill="#222222" d="M53.341,7.698h-4.97v13.776h-2.577V7.698h-4.978V5.543h12.525V7.698z"/>
<path fill="#222222" d="M69.537,13.509c0,1.18-0.192,2.258-0.575,3.236c-0.384,0.978-0.924,1.815-1.621,2.517
	c-0.697,0.7-1.534,1.245-2.512,1.632c-0.978,0.386-2.064,0.581-3.258,0.581h-6.021V5.543h6.021c1.194,0,2.28,0.192,3.258,0.581
	c0.978,0.386,1.815,0.932,2.512,1.632s1.237,1.54,1.621,2.517C69.345,11.25,69.537,12.328,69.537,13.509z M66.893,13.509
	c0-0.916-0.124-1.737-0.37-2.469c-0.249-0.729-0.602-1.345-1.064-1.848c-0.459-0.5-1.018-0.886-1.675-1.156
	c-0.656-0.267-1.394-0.402-2.212-0.402h-3.42v11.75h3.42c0.818,0,1.556-0.132,2.212-0.4c0.656-0.265,1.216-0.651,1.675-1.156
	c0.462-0.505,0.816-1.121,1.064-1.848C66.769,15.254,66.893,14.43,66.893,13.509z"/>
<path fill="#222222" d="M77.679,5.543c1.018,0,1.888,0.097,2.612,0.292c0.724,0.197,1.315,0.475,1.783,0.837
	c0.465,0.359,0.805,0.802,1.021,1.321c0.219,0.521,0.327,1.105,0.327,1.753c0,0.378-0.057,0.74-0.17,1.091
	c-0.116,0.348-0.292,0.678-0.532,0.983c-0.24,0.308-0.54,0.581-0.902,0.824c-0.362,0.246-0.789,0.448-1.283,0.61
	c2.258,0.478,3.387,1.677,3.387,3.595c0,0.678-0.13,1.299-0.384,1.864c-0.254,0.565-0.624,1.051-1.105,1.461
	c-0.484,0.408-1.08,0.727-1.788,0.956s-1.515,0.343-2.423,0.343h-5.843V5.543H77.679z M74.969,7.566v4.981h2.588
	c1.107,0,1.934-0.216,2.48-0.643c0.546-0.427,0.818-1.043,0.818-1.848c0-0.878-0.257-1.513-0.77-1.904
	c-0.513-0.389-1.315-0.586-2.407-0.586H74.969z M78.178,19.427c0.581,0,1.075-0.068,1.478-0.205c0.4-0.135,0.729-0.321,0.983-0.556
	c0.254-0.238,0.44-0.516,0.554-0.837c0.113-0.319,0.17-0.664,0.17-1.035c0-0.751-0.257-1.342-0.767-1.775
	c-0.513-0.432-1.324-0.648-2.428-0.648h-3.198v5.057H78.178z"/>
<path fill="#2AAAE2" d="M92.438,21.714c-0.031,0.175,0.047,0.301,0.096,0.36c0.051,0.06,0.162,0.162,0.345,0.162h6.806l-3.662-6.343
	C94.144,17.312,92.859,19.38,92.438,21.714z"/>
<path fill="#C59C6D" d="M110.511,22.236c0.182,0,0.295-0.101,0.345-0.162c0.049-0.059,0.128-0.185,0.096-0.36
	c-0.421-2.334-1.706-4.402-3.585-5.821l-3.662,6.342H110.511z"/>
<path fill="#ED2079" d="M102.856,11.732c1.268,0.126,2.506,0.458,3.666,0.982l3.873-6.709c0.085-0.148,0.062-0.289,0.04-0.359
	c-0.022-0.069-0.08-0.195-0.23-0.266c-2.165-1.026-4.475-1.646-6.865-1.843c-0.013-0.001-0.026-0.002-0.038-0.002
	c-0.15,0-0.252,0.073-0.302,0.119c-0.054,0.05-0.144,0.159-0.144,0.329v1.979c0,0.001,0,0.002,0,0.004V11.732z"/>
<path fill="#8DC641" d="M100.534,7.168c-1.912,0.134-3.763,0.601-5.516,1.393c-0.146,0.066-0.204,0.189-0.226,0.257
	c-0.023,0.072-0.049,0.215,0.039,0.367l2.037,3.529c1.159-0.524,2.398-0.856,3.666-0.982V7.168z"/>
<path fill="#FFFFFF" d="M102.856,14.073L102.856,14.073c-0.385-0.047-0.773-0.073-1.161-0.073h0c-0.388,0-0.775,0.026-1.16,0.073
	c0,0,0,0,0,0c-0.86,0.104-1.705,0.322-2.501,0.659l2.501,4.332v0.001l1.161,2.01l0,0l0,0l1.161-2.011v0l2.501-4.332
	C104.561,14.395,103.716,14.177,102.856,14.073z"/>
<path fill="#333333" d="M113.237,21.301c-0.543-3.007-2.235-5.658-4.703-7.429l3.872-6.707c0.385-0.668,0.475-1.474,0.245-2.211
	c-0.229-0.734-0.758-1.344-1.451-1.672c-2.42-1.147-5-1.839-7.669-2.058c-0.766-0.063-1.536,0.201-2.103,0.724
	s-0.893,1.265-0.893,2.036v0.862c-2.244,0.138-4.416,0.672-6.472,1.6h0c-0.703,0.318-1.243,0.923-1.48,1.661
	c-0.24,0.745-0.153,1.561,0.238,2.239l2.036,3.527c-2.468,1.771-4.16,4.421-4.703,7.429c-0.145,0.807,0.073,1.631,0.6,2.261
	c0.528,0.632,1.303,0.994,2.126,0.994h8.816h0h8.815c0.823,0,1.598-0.363,2.126-0.995C113.164,22.932,113.382,22.108,113.237,21.301
	z M110.856,22.074c-0.051,0.061-0.163,0.162-0.345,0.162h-6.805l3.662-6.342c1.879,1.418,3.164,3.486,3.585,5.821
	C110.984,21.889,110.906,22.014,110.856,22.074z M92.534,22.074c-0.049-0.059-0.128-0.185-0.096-0.36
	c0.421-2.334,1.706-4.402,3.585-5.821l3.662,6.343h-6.806C92.697,22.236,92.585,22.134,92.534,22.074z M94.792,8.818
	c0.022-0.068,0.08-0.191,0.226-0.257c1.754-0.792,3.604-1.259,5.516-1.393v4.564c-1.268,0.126-2.507,0.458-3.666,0.982l-2.037-3.529
	C94.743,9.033,94.769,8.89,94.792,8.818z M110.435,5.646c0.022,0.07,0.046,0.211-0.04,0.359l-3.873,6.709
	c-1.159-0.524-2.398-0.856-3.666-0.982V5.967c0-0.001,0-0.002,0-0.004V3.984c0-0.17,0.091-0.279,0.144-0.329
	c0.05-0.046,0.153-0.119,0.302-0.119c0.012,0,0.025,0.001,0.038,0.002c2.39,0.196,4.7,0.816,6.865,1.843
	C110.355,5.451,110.414,5.577,110.435,5.646z M101.695,14c0.388,0,0.775,0.026,1.16,0.073l0,0c0.859,0.104,1.705,0.322,2.501,0.659
	l-2.501,4.332v0l-1.161,2.011l0,0l0,0l-1.161-2.01v-0.001l-2.501-4.332c0.797-0.337,1.642-0.555,2.501-0.659c0,0,0,0,0,0
	C100.92,14.026,101.307,14,101.695,14L101.695,14z"/>
</svg>
