<?xml version="1.0" encoding="utf-8"?>
<!-- Generator: Adobe Illustrator 21.0.0, SVG Export Plug-In . SVG Version: 6.00 Build 0)  -->
<svg version="1.1" id="Layer_1" xmlns="http://www.w3.org/2000/svg" xmlns:xlink="http://www.w3.org/1999/xlink" x="0px" y="0px"
	 viewBox="0 0 32 32" enable-background="new 0 0 32 32" xml:space="preserve">
<path fill="#2AAAE2" d="M3.71,27.315c-0.041,0.226,0.061,0.389,0.125,0.466c0.066,0.078,0.21,0.209,0.447,0.209h8.811l-4.741-8.212
	C5.919,21.616,4.255,24.293,3.71,27.315z"/>
<path fill="#C59C6D" d="M27.109,27.991c0.236,0,0.382-0.131,0.447-0.21c0.064-0.077,0.165-0.239,0.125-0.466
	c-0.545-3.022-2.209-5.699-4.641-7.536l-4.741,8.211H27.109z"/>
<path fill="#ED2079" d="M17.198,14.392c1.642,0.164,3.245,0.593,4.746,1.272l5.015-8.686c0.111-0.192,0.08-0.374,0.051-0.465
	c-0.028-0.089-0.104-0.252-0.297-0.344C23.91,4.84,20.92,4.037,17.826,3.783c-0.017-0.001-0.033-0.002-0.049-0.002
	c-0.194,0-0.327,0.094-0.391,0.154C17.315,4,17.198,4.141,17.198,4.361v2.563c0,0.002,0,0.003,0,0.005V14.392z"/>
<path fill="#8DC641" d="M14.192,8.483c-2.476,0.174-4.871,0.778-7.142,1.804c-0.189,0.086-0.265,0.245-0.293,0.333
	c-0.03,0.093-0.064,0.278,0.05,0.475l2.638,4.569c1.501-0.678,3.105-1.108,4.746-1.272V8.483z"/>
<path fill="#FFFFFF" d="M17.198,17.422L17.198,17.422c-0.499-0.061-1.001-0.094-1.503-0.094h0c-0.502,0-1.004,0.034-1.502,0.094
	c0,0,0,0,0,0c-1.113,0.135-2.207,0.417-3.238,0.853l3.238,5.609v0.001l1.503,2.603l0,0l0-0.001l1.503-2.603v0l3.238-5.609
	C19.405,17.839,18.311,17.557,17.198,17.422z"/>
<path fill="#000" d="M30.638,26.781c-0.702-3.894-2.894-7.325-6.089-9.618l5.013-8.683c0.499-0.865,0.615-1.908,0.317-2.862
	c-0.296-0.95-0.981-1.74-1.879-2.165c-3.133-1.484-6.473-2.381-9.929-2.665c-0.991-0.082-1.989,0.26-2.723,0.937
	c-0.735,0.677-1.156,1.638-1.156,2.636v1.115c-2.905,0.178-5.718,0.87-8.379,2.072h0c-0.91,0.411-1.609,1.195-1.917,2.15
	c-0.311,0.965-0.198,2.021,0.309,2.899l2.636,4.566c-3.195,2.292-5.386,5.724-6.089,9.618c-0.188,1.044,0.094,2.111,0.776,2.928
	c0.684,0.818,1.687,1.288,2.753,1.288h11.414h0h11.413c1.066,0,2.069-0.47,2.753-1.288C30.544,28.892,30.826,27.826,30.638,26.781z
	 M27.556,27.781c-0.066,0.079-0.211,0.21-0.447,0.21h-8.811l4.741-8.211c2.432,1.836,4.096,4.514,4.641,7.536
	C27.721,27.542,27.62,27.704,27.556,27.781z M3.835,27.781c-0.064-0.077-0.165-0.24-0.125-0.466
	c0.545-3.022,2.209-5.699,4.641-7.536l4.741,8.212H4.281C4.045,27.991,3.9,27.86,3.835,27.781z M6.758,10.62
	c0.028-0.088,0.104-0.247,0.293-0.333c2.271-1.025,4.666-1.63,7.142-1.804v5.908c-1.642,0.164-3.245,0.593-4.746,1.272l-2.638-4.569
	C6.694,10.898,6.728,10.713,6.758,10.62z M27.011,6.513c0.028,0.091,0.059,0.273-0.051,0.465l-5.015,8.686
	c-1.501-0.679-3.105-1.108-4.746-1.272V6.928c0-0.002,0-0.003,0-0.005V4.361c0-0.22,0.117-0.361,0.187-0.425
	c0.065-0.06,0.198-0.154,0.391-0.154c0.016,0,0.033,0.001,0.049,0.002c3.094,0.254,6.084,1.057,8.888,2.385
	C26.907,6.261,26.983,6.424,27.011,6.513z M15.696,17.328c0.502,0,1.004,0.034,1.502,0.094l0,0c1.113,0.135,2.207,0.417,3.238,0.853
	l-3.238,5.609v0l-1.503,2.603l0,0.001l0,0l-1.503-2.603v-0.001l-3.238-5.609c1.031-0.436,2.125-0.718,3.238-0.853c0,0,0,0,0,0
	C14.691,17.362,15.193,17.328,15.696,17.328L15.696,17.328z"/>
</svg>
